<svg width="28" height="48" viewBox="0 0 28 48" fill="none" xmlns="http://www.w3.org/2000/svg">
<path d="M6.1875 46.75L27.25 25.75C27.5 25.5 27.6775 25.2292 27.7825 24.9375C27.8875 24.6458 27.9392 24.3333 27.9375 24C27.9375 23.6667 27.8858 23.3542 27.7825 23.0625C27.6792 22.7708 27.5017 22.5 27.25 22.25L6.1875 1.1875C5.60417 0.604166 4.875 0.3125 4 0.3125C3.125 0.3125 2.375 0.625 1.75 1.25C1.125 1.875 0.812504 2.60417 0.812504 3.4375C0.812504 4.27083 1.125 5 1.75 5.625L20.125 24L1.75 42.375C1.16667 42.9583 0.875004 43.6775 0.875004 44.5325C0.875004 45.3875 1.1875 46.1267 1.8125 46.75C2.4375 47.375 3.16667 47.6875 4 47.6875C4.83334 47.6875 5.5625 47.375 6.1875 46.75Z" fill="#29312C"/>
</svg>
