<svg width="70" height="60" viewBox="0 0 70 60" fill="none" xmlns="http://www.w3.org/2000/svg">
<path d="M42.8125 52.75L21.75 31.75C21.5 31.5 21.3225 31.2292 21.2175 30.9375C21.1125 30.6458 21.0609 30.3333 21.0625 30C21.0625 29.6667 21.1142 29.3542 21.2175 29.0625C21.3209 28.7708 21.4984 28.5 21.75 28.25L42.8125 7.1875C43.3959 6.60417 44.125 6.3125 45 6.3125C45.875 6.3125 46.625 6.625 47.25 7.25C47.875 7.875 48.1875 8.60417 48.1875 9.4375C48.1875 10.2708 47.875 11 47.25 11.625L28.875 30L47.25 48.375C47.8334 48.9583 48.125 49.6775 48.125 50.5325C48.125 51.3875 47.8125 52.1267 47.1875 52.75C46.5625 53.375 45.8334 53.6875 45 53.6875C44.1667 53.6875 43.4375 53.375 42.8125 52.75Z" fill="#29312C"/>
</svg>
