<svg width="70" height="60" viewBox="0 0 70 60" fill="none" xmlns="http://www.w3.org/2000/svg">
<path d="M27.1875 52.75L48.25 31.75C48.5 31.5 48.6775 31.2292 48.7825 30.9375C48.8875 30.6458 48.9391 30.3333 48.9375 30C48.9375 29.6667 48.8858 29.3542 48.7825 29.0625C48.6791 28.7708 48.5016 28.5 48.25 28.25L27.1875 7.1875C26.6041 6.60417 25.875 6.3125 25 6.3125C24.125 6.3125 23.375 6.625 22.75 7.25C22.125 7.875 21.8125 8.60417 21.8125 9.4375C21.8125 10.2708 22.125 11 22.75 11.625L41.125 30L22.75 48.375C22.1666 48.9583 21.875 49.6775 21.875 50.5325C21.875 51.3875 22.1875 52.1267 22.8125 52.75C23.4375 53.375 24.1666 53.6875 25 53.6875C25.8333 53.6875 26.5625 53.375 27.1875 52.75Z" fill="#29312C"/>
</svg>
