<svg width="60" height="60" viewBox="0 0 60 60" fill="none" xmlns="http://www.w3.org/2000/svg">
<path d="M18.75 5C20.0761 5 21.3479 5.52678 22.2855 6.46447C23.2232 7.40215 23.75 8.67392 23.75 10C23.75 11.3261 23.2232 12.5979 22.2855 13.5355C21.3479 14.4732 20.0761 15 18.75 15C17.4239 15 16.1521 14.4732 15.2145 13.5355C14.2768 12.5979 13.75 11.3261 13.75 10C13.75 8.67392 14.2768 7.40215 15.2145 6.46447C16.1521 5.52678 17.4239 5 18.75 5ZM15 17.5H22.5C23.8261 17.5 25.0979 18.0268 26.0355 18.9645C26.9732 19.9021 27.5 21.1739 27.5 22.5V36.25H23.75V55H13.75V36.25H10V22.5C10 21.1739 10.5268 19.9021 11.4645 18.9645C12.4021 18.0268 13.6739 17.5 15 17.5ZM36.25 30C36.25 28.6739 36.7768 27.4021 37.7145 26.4645C38.6521 25.5268 39.9239 25 41.25 25C42.5761 25 43.8479 25.5268 44.7855 26.4645C45.7232 27.4021 46.25 28.6739 46.25 30C46.25 31.3261 45.7232 32.5979 44.7855 33.5355C43.8479 34.4732 42.5761 35 41.25 35C39.9239 35 38.6521 34.4732 37.7145 33.5355C36.7768 32.5979 36.25 31.3261 36.25 30ZM33.75 37.5H48.75V47.5H45V55H37.5V47.5H33.75V37.5Z" fill="#29312C"/>
</svg>
