<svg width="60" height="60" viewBox="0 0 60 60" fill="none" xmlns="http://www.w3.org/2000/svg">
<path d="M27.5001 5C32.3565 5.00032 37.0469 6.7672 40.6965 9.97109C44.3462 13.175 46.7057 17.5971 47.3351 22.4125L52.9601 31.26C53.3301 31.8425 53.2551 32.71 52.3976 33.08L47.5001 35.175V42.5C47.5001 43.8261 46.9733 45.0979 46.0356 46.0355C45.0979 46.9732 43.8261 47.5 42.5001 47.5H37.5026L37.5001 55H15.0001V45.765C15.0001 42.815 13.9101 40.0225 11.8876 37.5025C9.53182 34.5611 8.05501 31.0141 7.6273 27.27C7.19958 23.5259 7.83836 19.7372 9.47004 16.3403C11.1017 12.9434 13.6599 10.0766 16.8498 8.07029C20.0398 6.06393 23.7316 4.99962 27.5001 5ZM27.5001 10C24.674 9.99988 21.9054 10.7981 19.5132 12.3027C17.121 13.8074 15.2025 15.9572 13.9788 18.5045C12.755 21.0519 12.2757 23.8931 12.5962 26.7009C12.9166 29.5087 14.0238 32.1689 15.7901 34.375C18.5251 37.785 20.0001 41.6675 20.0001 45.765V50H32.5001L32.5051 42.5H42.5001V31.88L46.3751 30.22L42.5176 24.1575L42.3751 23.0525C41.9018 19.4423 40.1317 16.1274 37.3949 13.7258C34.658 11.3243 31.1412 10.0001 27.5001 10ZM26.1751 19.4075L27.5001 20.7325L28.8251 19.4075C29.65 18.6104 30.7551 18.1692 31.9022 18.1789C33.0493 18.1887 34.1467 18.6486 34.958 19.4596C35.7694 20.2705 36.2297 21.3678 36.2399 22.5149C36.2501 23.662 35.8093 24.7672 35.0126 25.5925L27.5001 33.1075L19.9876 25.5925C19.5698 25.1888 19.2366 24.706 19.0074 24.1722C18.7782 23.6384 18.6577 23.0643 18.6527 22.4834C18.6478 21.9025 18.7586 21.3264 18.9787 20.7888C19.1988 20.2511 19.5237 19.7627 19.9346 19.352C20.3455 18.9413 20.834 18.6166 21.3717 18.3967C21.9094 18.1768 22.4856 18.0662 23.0665 18.0714C23.6474 18.0766 24.2214 18.1974 24.7552 18.4268C25.2889 18.6562 25.7716 18.9896 26.1751 19.4075Z" fill="#29312C"/>
</svg>
