<svg width="60" height="48" viewBox="0 0 60 48" fill="none" xmlns="http://www.w3.org/2000/svg">
<g clip-path="url(#clip0_127_488)">
<path d="M30 0C30.9946 0 31.9484 0.395088 32.6516 1.09835C33.3549 1.80161 33.75 2.75544 33.75 3.75C33.75 4.74456 33.3549 5.69839 32.6516 6.40165C31.9484 7.10491 30.9946 7.5 30 7.5C29.0054 7.5 28.0516 7.10491 27.3484 6.40165C26.6451 5.69839 26.25 4.74456 26.25 3.75C26.25 2.75544 26.6451 1.80161 27.3484 1.09835C28.0516 0.395088 29.0054 0 30 0ZM34.1906 15.4031L35.2312 23.7188C35.3812 24.9562 34.5094 26.0719 33.2812 26.2312C32.0531 26.3906 30.9281 25.5094 30.7688 24.2812L30.3562 21H29.6438L29.2312 24.2812C29.0812 25.5187 27.9562 26.3906 26.7188 26.2312C25.4813 26.0719 24.6094 24.9562 24.7688 23.7188L25.8094 15.3937L23.9531 16.9688C23.0063 17.775 21.5812 17.6531 20.7844 16.7062C19.9875 15.7594 20.1 14.3344 21.0469 13.5375L23.6625 11.325C25.4344 9.825 27.6844 9 30 9C32.3156 9 34.5656 9.825 36.3375 11.3156L38.9531 13.5281C39.9 14.3344 40.0219 15.75 39.2156 16.6969C38.4094 17.6438 36.9938 17.7656 36.0469 16.9594L34.1906 15.3937V15.4031ZM3.75 6C5.82188 6 7.5 7.67812 7.5 9.75V24.7688C7.5 26.3625 8.12812 27.8906 9.25312 29.0156L14.0438 33.8063C14.8219 34.5844 16.0406 34.7063 16.95 34.0969C18.1594 33.2906 18.3281 31.575 17.2969 30.5531L15.8719 29.1281L12.8719 26.1281C11.7 24.9563 11.7 23.0531 12.8719 21.8812C14.0438 20.7094 15.9469 20.7094 17.1188 21.8812L20.1188 24.8812L21.5438 26.3063L23.9156 28.6781C25.8844 30.6469 26.9906 33.3188 26.9906 36.1031V43.5C26.9906 45.9844 24.975 48 22.4906 48H16.2469C14.6531 48 13.125 47.3719 12 46.2469L2.63438 36.8812C0.946875 35.1937 0 32.9062 0 30.5156V9.75C0 7.67812 1.67812 6 3.75 6ZM56.25 6C58.3219 6 60 7.67812 60 9.75V30.5156C60 32.9062 59.0531 35.1937 57.3656 36.8812L48 46.2469C46.875 47.3719 45.3469 48 43.7531 48H37.5C35.0156 48 33 45.9844 33 43.5V36.1031C33 33.3188 34.1062 30.6469 36.075 28.6781L38.4469 26.3063L39.8719 24.8812L42.8719 21.8812C44.0437 20.7094 45.9469 20.7094 47.1188 21.8812C48.2906 23.0531 48.2906 24.9563 47.1188 26.1281L44.1188 29.1281L42.6937 30.5531C41.6625 31.5844 41.8312 33.2906 43.0406 34.0969C43.95 34.7063 45.1688 34.5844 45.9469 33.8063L50.7375 29.0156C51.8625 27.8906 52.4906 26.3625 52.4906 24.7688V9.75C52.4906 7.67812 54.1688 6 56.2406 6H56.25Z" fill="#29312C"/>
</g>
<defs>
<clipPath id="clip0_127_488">
<rect width="60" height="48" fill="white"/>
</clipPath>
</defs>
</svg>
