<svg width="60" height="60" viewBox="0 0 60 60" fill="none" xmlns="http://www.w3.org/2000/svg">
<path d="M32.4999 7.5C42.2499 7.5 49.9999 15.25 49.9999 25C49.9999 32 45.9999 38 39.9999 40.75V52.5H22.4999V45H19.9999C17.2499 45 14.9999 42.75 14.9999 40V32.5H11.2499C10.2499 32.5 9.49992 31.25 10.2499 30.5L14.9999 24.25C15.4999 14.75 22.9999 7.5 32.4999 7.5ZM32.4999 2.5C20.9999 2.5 11.4999 11 10.2499 22.25L6.24992 27.5C4.74992 29.5 4.74992 32 5.74992 34C6.74992 35.75 8.24992 37 9.99992 37.25V40C9.99992 44.75 13.2499 48.5 17.4999 49.75V57.5H44.9999V43.75C51.2499 39.5 54.9999 32.75 54.9999 25C54.9999 12.5 44.9999 2.5 32.4999 2.5ZM24.9999 25C23.4999 25 22.4999 24 22.4999 22.5C22.4999 21 23.4999 20 24.9999 20C26.4999 20 27.4999 21 27.4999 22.5C27.4999 24 26.4999 25 24.9999 25ZM32.4999 25C30.9999 25 29.9999 24 29.9999 22.5C29.9999 21 30.9999 20 32.4999 20C33.9999 20 34.9999 21 34.9999 22.5C34.9999 24 33.9999 25 32.4999 25ZM39.9999 25C38.7499 25 37.4999 24 37.4999 22.5C37.4999 21 38.7499 20 39.9999 20C41.2499 20 42.4999 21 42.4999 22.5C42.4999 24 41.2499 25 39.9999 25Z" fill="#29312C"/>
</svg>
