<svg width="60" height="60" viewBox="0 0 60 60" fill="none" xmlns="http://www.w3.org/2000/svg">
<path d="M36.25 29.375C35.375 29.375 34.635 29.0725 34.03 28.4675C33.425 27.8625 33.1233 27.1233 33.125 26.25C33.125 25.375 33.4275 24.635 34.0325 24.03C34.6375 23.425 35.3767 23.1233 36.25 23.125C37.125 23.125 37.865 23.4275 38.47 24.0325C39.075 24.6375 39.3767 25.3767 39.375 26.25C39.375 27.125 39.0725 27.865 38.4675 28.47C37.8625 29.075 37.1233 29.3767 36.25 29.375ZM23.75 29.375C22.875 29.375 22.135 29.0725 21.53 28.4675C20.925 27.8625 20.6233 27.1233 20.625 26.25C20.625 25.375 20.9275 24.635 21.5325 24.03C22.1375 23.425 22.8767 23.1233 23.75 23.125C24.625 23.125 25.365 23.4275 25.97 24.0325C26.575 24.6375 26.8767 25.3767 26.875 26.25C26.875 27.125 26.5725 27.865 25.9675 28.47C25.3625 29.075 24.6233 29.3767 23.75 29.375ZM30 42.5C27.5 42.5 25.2392 41.8125 23.2175 40.4375C21.1958 39.0625 19.7067 37.25 18.75 35H41.25C40.2917 37.25 38.8017 39.0625 36.78 40.4375C34.7583 41.8125 32.4983 42.5 30 42.5ZM30 52.5C26.875 52.5 23.9475 51.9058 21.2175 50.7175C18.4875 49.5292 16.1125 47.9258 14.0925 45.9075C12.0725 43.8858 10.4692 41.5108 9.2825 38.7825C8.09583 36.0542 7.50167 33.1267 7.5 30C7.5 26.875 8.09417 23.9475 9.2825 21.2175C10.4708 18.4875 12.0742 16.1125 14.0925 14.0925C16.1142 12.0725 18.4892 10.4692 21.2175 9.2825C23.9458 8.09583 26.8733 7.50167 30 7.5C33.125 7.5 36.0525 8.09417 38.7825 9.2825C41.5125 10.4708 43.8875 12.0742 45.9075 14.0925C47.9275 16.1142 49.5317 18.4892 50.72 21.2175C51.9083 23.9458 52.5017 26.8733 52.5 30C52.5 33.125 51.9058 36.0525 50.7175 38.7825C49.5292 41.5125 47.9258 43.8875 45.9075 45.9075C43.8858 47.9275 41.5108 49.5317 38.7825 50.72C36.0542 51.9083 33.1267 52.5017 30 52.5ZM30 47.5C34.8333 47.5 38.9583 45.7917 42.375 42.375C45.7917 38.9583 47.5 34.8333 47.5 30C47.5 25.1667 45.7917 21.0417 42.375 17.625C38.9583 14.2083 34.8333 12.5 30 12.5H29.25C29 12.5 28.75 12.5417 28.5 12.625C28.25 12.875 28.0833 13.1458 28 13.4375C27.9167 13.7292 27.875 14.0417 27.875 14.375C27.875 15.25 28.1767 15.99 28.78 16.595C29.3833 17.2 30.1233 17.5017 31 17.5C31.375 17.5 31.7192 17.4375 32.0325 17.3125C32.3458 17.1875 32.6683 17.125 33 17.125C33.5 17.125 33.9167 17.3125 34.25 17.6875C34.5833 18.0625 34.75 18.5 34.75 19C34.75 19.9583 34.3017 20.5733 33.405 20.845C32.5083 21.1167 31.7067 21.2517 31 21.25C29.125 21.25 27.51 20.5725 26.155 19.2175C24.8 17.8625 24.1233 16.2483 24.125 14.375V14C24.125 13.875 24.1458 13.7083 24.1875 13.5C20.7292 14.75 17.9167 16.8542 15.75 19.8125C13.5833 22.7708 12.5 26.1667 12.5 30C12.5 34.8333 14.2083 38.9583 17.625 42.375C21.0417 45.7917 25.1667 47.5 30 47.5Z" fill="#29312C"/>
</svg>
