<svg width="40" height="40" viewBox="0 0 40 40" fill="none" xmlns="http://www.w3.org/2000/svg">
<path d="M20.0007 3.3335C10.8007 3.3335 3.33398 10.8002 3.33398 20.0002C3.33398 29.2002 10.8007 36.6668 20.0007 36.6668C29.2007 36.6668 36.6673 29.2002 36.6673 20.0002C36.6673 10.8002 29.2007 3.3335 20.0007 3.3335ZM27.734 14.6668C27.484 17.3002 26.4007 23.7002 25.8507 26.6502C25.6173 27.9002 25.1507 28.3168 24.7173 28.3668C23.7507 28.4502 23.0173 27.7335 22.084 27.1168C20.6173 26.1502 19.784 25.5502 18.3673 24.6168C16.7173 23.5335 17.784 22.9335 18.734 21.9668C18.984 21.7168 23.2507 17.8335 23.334 17.4835C23.3456 17.4305 23.344 17.3754 23.3295 17.3232C23.315 17.2709 23.2879 17.2229 23.2507 17.1835C23.1507 17.1002 23.0173 17.1335 22.9007 17.1502C22.7507 17.1835 20.4173 18.7335 15.8673 21.8002C15.2007 22.2502 14.6006 22.4835 14.0673 22.4668C13.4673 22.4502 12.334 22.1335 11.484 21.8502C10.434 21.5168 9.61732 21.3335 9.68398 20.7502C9.71732 20.4502 10.134 20.1502 10.9173 19.8335C15.784 17.7168 19.0173 16.3168 20.634 15.6502C25.2673 13.7168 26.2173 13.3835 26.8507 13.3835C26.984 13.3835 27.3006 13.4168 27.5007 13.5835C27.6673 13.7168 27.7173 13.9002 27.734 14.0335C27.7173 14.1335 27.7506 14.4335 27.734 14.6668Z" fill="#29312C"/>
</svg>
