<svg width="40" height="40" viewBox="0 0 40 40" fill="none" xmlns="http://www.w3.org/2000/svg">
<path fill-rule="evenodd" clip-rule="evenodd" d="M37.8682 10.3125C38.1463 9.43125 37.8682 8.79062 36.6377 8.79062H32.5463C31.5143 8.79062 31.0377 9.35156 30.7596 9.95156C30.7596 9.95156 28.6549 15.0766 25.7158 18.3992C24.7627 19.3602 24.326 19.6805 23.8096 19.6805C23.5314 19.6805 23.1736 19.3602 23.1736 18.4797V10.2711C23.1736 9.23047 22.8564 8.75 21.9822 8.75H15.5479C14.9119 8.75 14.515 9.23047 14.515 9.71094C14.515 10.7117 15.9846 10.9523 16.1432 13.7547V19.8438C16.1432 21.1648 15.9088 21.4062 15.3885 21.4062C13.9986 21.4062 10.6229 16.2414 8.59785 10.3562C8.2041 9.19062 7.8041 8.75 6.77129 8.75H2.64082C1.44941 8.75 1.25098 9.31016 1.25098 9.91094C1.25098 10.9922 2.64082 16.4367 7.72441 23.643C11.1002 28.5648 15.9057 31.2102 20.2346 31.2102C22.8564 31.2102 23.1736 30.6094 23.1736 29.6086V25.8852C23.1736 24.6844 23.4119 24.4844 24.2463 24.4844C24.8416 24.4844 25.9143 24.8039 28.3369 27.1664C31.1166 29.9688 31.5932 31.25 33.1424 31.25H37.233C38.4244 31.25 38.9807 30.6492 38.6627 29.4883C38.3057 28.3273 36.9549 26.6461 35.2072 24.6445C34.2541 23.5242 32.8244 22.2828 32.3877 21.682C31.7924 20.8813 31.951 20.5609 32.3877 19.8406C32.3479 19.8406 37.3525 12.7141 37.8682 10.3094" fill="#29312C"/>
</svg>
